# xmcd
# Track frame offsets:
# 150
# 13089
# 25685
# 39611
# 49754
# 64998
# 78889
# 89746
# 101884
# 114243
# 128061
# 139072
# 153217
# 162977
# 172344
#
# Disc length: 2475 seconds
# Revision: 0
# Processed by: cddbd v1.5.1PL0 Copyright (c) Steve Scherf et al.
# Submitted via: VisiTrax 2.9.10.228 - For more info visit www.synapsa.com
#
DISCID=c709a90f
DTITLE=Wagoner, Porter and Dolly - CB90083
DYEAR=1900
DGENRE=Karaoke
TTITLE0=Last Thing On My Mind, The
TTITLE1=Holding On To Nothin'
TTITLE2=Jeannie's Afraid Of The Dark
TTITLE3=We'll Get Ahead Someday
TTITLE4=Daddy Was An Old Time Preacher Man
TTITLE5=Tomorrow Is Forever
TTITLE6=If Teardrops Were Pennies
TTITLE7=Better Move It On Home
TTITLE8=Your Love
TTITLE9=Please Don't Stop Loving Me
TTITLE10=Making Plans
TTITLE11=Forty Miles From Poplar Bluff
TTITLE12=Before I Met You
TTITLE13=Burning The Midnight Oil
TTITLE14=If You Go I'll Follow You
EXTD=
EXTT0=
EXTT1=
EXTT2=
EXTT3=
EXTT4=
EXTT5=
EXTT6=
EXTT7=
EXTT8=
EXTT9=
EXTT10=
EXTT11=
EXTT12=
EXTT13=
EXTT14=
PLAYORDER=
